HIERARCHY
ROOT Pelvis
{
	OFFSET 0.000000 0.000000 0.000000
	CHANNELS 6 Xposition Yposition Zposition Xrotation Yrotation Zrotation
	JOINT LeftUpLeg_virtual
	{
		OFFSET 0.000000 0.000000 0.000000
		CHANNELS 3 Xrotation Yrotation Zrotation
		JOINT LeftUpLeg
		{
			OFFSET 8.479700 -4.795502 -0.379100
			CHANNELS 3 Xrotation Yrotation Zrotation
			JOINT LeftLeg
			{
				OFFSET 0.024144 -32.555107 0.112900
				CHANNELS 3 Xrotation Yrotation Zrotation
				JOINT LeftFoot
				{
					OFFSET -0.024144 -32.638630 -3.012600
					CHANNELS 3 Xrotation Yrotation Zrotation
					JOINT LeftToeBase
					{
						OFFSET 0.970200 -13.225400 11.864200
						CHANNELS 3 Xrotation Yrotation Zrotation
						End Site
						{
							OFFSET 0 0 0
						}
					}
				}
			}
		}
	}
	JOINT RightUpLeg_virtual
	{
		OFFSET 0.000000 0.000000 0.000000
		CHANNELS 3 Xrotation Yrotation Zrotation
		JOINT RightUpLeg
		{
			OFFSET -8.479700 -4.795502 -0.379100
			CHANNELS 3 Xrotation Yrotation Zrotation
			JOINT RightLeg
			{
				OFFSET -0.023144 -32.555092 0.112900
				CHANNELS 3 Xrotation Yrotation Zrotation
				JOINT RightFoot
				{
					OFFSET 0.023144 -32.638641 -3.012700
					CHANNELS 3 Xrotation Yrotation Zrotation
					JOINT RightToeBase
					{
						OFFSET -0.970200 -13.225400 11.864200
						CHANNELS 3 Xrotation Yrotation Zrotation
						End Site
						{
							OFFSET 0 0 0
						}
					}
				}
			}
		}
	}
	JOINT Hips_virtual
	{
		OFFSET 0.000000 0.000000 0.000000
		CHANNELS 3 Xrotation Yrotation Zrotation
		JOINT Hips
		{
			OFFSET -0.000000 -0.000000 -0.000000
			CHANNELS 3 Xrotation Yrotation Zrotation
			JOINT Spine
			{
				OFFSET 0.000000 7.722000 1.166200
				CHANNELS 3 Xrotation Yrotation Zrotation
				JOINT Spine1
				{
					OFFSET 0.000000 12.024101 0.248800
					CHANNELS 3 Xrotation Yrotation Zrotation
					JOINT Spine2
					{
						OFFSET 0.000000 11.502998 -0.491200
						CHANNELS 3 Xrotation Yrotation Zrotation
						JOINT Neck_virtual
						{
							OFFSET 0.000000 0.000000 0.000000
							CHANNELS 3 Xrotation Yrotation Zrotation
							JOINT Neck
							{
								OFFSET 0.000000 18.430702 -3.123100
								CHANNELS 3 Xrotation Yrotation Zrotation
								JOINT Head
								{
									OFFSET 0.000000 9.051102 1.034000
									CHANNELS 3 Xrotation Yrotation Zrotation
									End Site
									{
										OFFSET 0 0 0
									}
								}
							}
						}
						JOINT LeftShoulder_virtual
						{
							OFFSET 0.000000 0.000000 0.000000
							CHANNELS 3 Xrotation Yrotation Zrotation
							JOINT LeftShoulder
							{
								OFFSET 6.197800 13.665199 -4.064700
								CHANNELS 3 Xrotation Yrotation Zrotation
								JOINT LeftArm
								{
									OFFSET 7.778100 -0.187103 -1.709300
									CHANNELS 3 Xrotation Yrotation Zrotation
									JOINT LeftForeArm
									{
										OFFSET 22.049376 0.000000 0.000000
										CHANNELS 3 Xrotation Yrotation Zrotation
										JOINT LeftHand
										{
											OFFSET 23.009392 0.000000 0.000000
											CHANNELS 3 Xrotation Yrotation Zrotation
											End Site
											{
												OFFSET 0 0 0
											}
										}
									}
								}
							}
						}
						JOINT RightShoulder_virtual
						{
							OFFSET 0.000000 0.000000 0.000000
							CHANNELS 3 Xrotation Yrotation Zrotation
							JOINT RightShoulder
							{
								OFFSET -6.197800 13.665199 -4.064700
								CHANNELS 3 Xrotation Yrotation Zrotation
								JOINT RightArm
								{
									OFFSET -7.778100 -0.187103 -1.709300
									CHANNELS 3 Xrotation Yrotation Zrotation
									JOINT RightForeArm
									{
										OFFSET -22.049376 0.000000 0.000000
										CHANNELS 3 Xrotation Yrotation Zrotation
										JOINT RightHand
										{
											OFFSET -23.009392 0.000000 0.000000
											CHANNELS 3 Xrotation Yrotation Zrotation
											End Site
											{
												OFFSET 0 0 0
											}
										}
									}
								}
							}
						}
					}
				}
			}
		}
	}
}
MOTION
Frames: 12
Frame Time: 0.03333333
3.359872 75.876213 94.264984 0.000000 0.000000 0.000000 4.445415 -6.126885 -3.314649 -48.398645 9.336525 9.975934 36.703480 -6.580412 3.183746 -1.547255 -13.816323 -2.724667 0.000000 0.000000 0.000000 4.445415 -6.126885 -3.314649 -23.379119 2.868934 7.473018 47.306966 3.666633 -2.336715 -27.308546 -1.182498 -0.057126 0.000000 0.000000 0.000000 4.445415 -6.126885 -3.314649 0.000000 0.000000 0.000000 16.216469 3.409024 1.688229 20.044449 7.628497 3.273777 0.000000 0.000000 0.000000 19.863227 7.768540 3.728083 -47.889950 28.030593 -28.867190 0.000000 0.000000 0.000000 19.863227 7.768540 3.728083 -3.629729 -15.408601 -10.382902 -11.971360 6.480785 -65.205091 -0.000015 -64.653922 -0.000004 0.000000 0.000000 0.000000 19.863227 7.768540 3.728083 -0.264769 19.358402 4.692118 -45.642739 8.432336 36.901463 179.999991 78.025492 -179.999991 0.000000 0.000000 0.000000 
3.145903 76.020569 93.542236 0.000000 0.000000 0.000000 3.552181 -6.355150 -3.755129 -47.809900 9.435550 10.765010 36.809450 -6.364197 3.510937 -3.560689 -11.109470 -3.207180 0.000000 0.000000 0.000000 3.552181 -6.355150 -3.755129 -22.688353 2.605924 7.778504 46.510481 3.918812 -2.064551 -26.760437 -0.927340 -0.238620 0.000000 0.000000 0.000000 3.552181 -6.355150 -3.755129 0.000000 0.000000 0.000001 16.029477 3.417212 1.811615 19.617234 7.612218 3.331497 0.000000 0.000000 0.000000 19.436456 7.747064 3.778475 -47.550647 27.672100 -28.991380 0.000000 0.000000 0.000000 19.436456 7.747064 3.778475 -3.381576 -14.879793 -10.335926 -13.224301 6.607392 -66.021879 -0.000008 -61.657730 -0.000015 0.000000 0.000000 0.000000 19.436456 7.747064 3.778475 -0.354248 18.524221 5.452754 -46.329641 9.134350 35.856089 -179.999923 77.992209 179.999950 0.000000 0.000000 0.000000 
2.943197 76.150932 92.840164 0.000000 0.000000 0.000000 2.647928 -6.463434 -4.129000 -47.249510 9.777157 11.497760 37.162199 -6.410847 3.845338 -5.995153 -8.220765 -3.381631 0.000000 0.000000 0.000000 2.647928 -6.463434 -4.129000 -21.996979 2.333482 8.104013 45.807876 4.170327 -1.912868 -26.208747 -0.800866 -0.456659 0.000000 0.000000 0.000000 2.647928 -6.463434 -4.129000 0.000000 0.000000 0.000000 15.861700 3.410718 1.945074 19.228934 7.527441 3.365999 0.000000 0.000000 0.000000 19.049739 7.657296 3.800929 -47.323041 27.067679 -28.852594 0.000000 0.000000 0.000000 19.049739 7.657296 3.800929 -3.121611 -14.392988 -10.230467 -14.562995 6.814961 -66.747286 0.000003 -58.543860 -0.000004 0.000000 0.000000 0.000000 19.049739 7.657296 3.800929 -0.392652 17.683329 6.225810 -47.721862 9.660094 34.897807 -179.999841 78.245520 179.999827 0.000000 0.000000 0.000000 
2.752765 76.268944 92.162582 0.000000 0.000000 0.000000 1.734531 -6.429909 -4.429749 -46.425182 9.329333 12.126114 37.577017 -4.657412 3.577537 -8.509967 -6.312039 -3.381452 0.000000 0.000000 0.000000 1.734531 -6.429909 -4.429749 -21.283834 1.991961 8.434462 45.183125 4.367924 -1.891144 -25.590986 -0.759989 -0.858956 0.000000 0.000000 0.000000 1.734531 -6.429909 -4.429749 0.000000 0.000000 0.000000 15.698017 3.398280 2.093816 18.892727 7.360076 3.379203 0.000000 0.000000 0.000000 18.719023 7.487797 3.782731 -47.227982 26.281461 -28.461883 0.000000 0.000000 0.000000 18.719023 7.487797 3.782731 -2.920879 -13.934228 -10.054508 -15.900429 7.130574 -67.405013 -0.000016 -55.377343 -0.000018 0.000000 0.000000 0.000000 18.719023 7.487797 3.782731 -0.415604 16.816231 7.010206 -50.064843 9.752492 34.132696 -179.999923 77.984737 179.999923 0.000000 0.000000 0.000000 
2.578799 76.371437 91.513016 0.000000 0.000000 0.000000 0.818451 -6.248597 -4.659246 -45.482066 8.408799 12.685203 38.153488 -1.045760 2.802128 -9.909249 -5.977189 -4.014932 0.000000 0.000000 0.000000 0.818451 -6.248597 -4.659246 -20.758145 1.714485 8.760420 44.913815 4.586069 -1.939742 -24.886709 -0.906142 -1.116132 0.000000 0.000000 0.000000 0.818451 -6.248597 -4.659246 0.000000 0.000000 0.000000 15.549796 3.357867 2.250695 18.588268 7.129564 3.367388 0.000000 0.000000 0.000000 18.418536 7.257465 3.742486 -47.311768 25.217132 -27.825699 0.000000 0.000000 0.000000 18.418536 7.257465 3.742486 -2.696761 -13.540296 -9.827421 -17.269365 7.585419 -67.978387 -0.000002 -52.241634 -0.000002 0.000000 0.000000 0.000000 18.418536 7.257465 3.742486 -0.400124 15.885984 7.777827 -52.330051 10.140603 33.435583 179.999937 78.586784 -179.999950 0.000000 0.000000 0.000000 
2.423967 76.455315 90.895004 0.000000 0.000000 0.000000 -0.089683 -5.929753 -4.831441 -44.694661 7.496952 13.437981 38.954293 1.687099 2.117687 -8.862535 -5.364661 -6.647001 0.000000 0.000000 0.000000 -0.089683 -5.929753 -4.831441 -20.206640 1.505784 9.068574 44.681400 4.609297 -2.016495 -24.270587 -1.123126 -1.321044 0.000000 0.000000 0.000000 -0.089683 -5.929753 -4.831441 0.000000 0.000000 0.000000 15.412358 3.292798 2.421373 18.307159 6.842976 3.335157 0.000000 0.000000 0.000000 18.139594 6.974634 3.683822 -47.474521 23.980692 -27.014404 0.000000 0.000000 0.000000 18.139594 6.974634 3.683822 -2.496465 -13.195359 -9.565477 -18.578980 8.187679 -68.480276 -0.000005 -49.237348 -0.000012 0.000000 0.000000 0.000000 18.139594 6.974634 3.683822 -0.357488 14.871758 8.511746 -54.828643 10.545207 32.887795 -179.999677 79.129599 179.999677 0.000000 0.000000 0.000000 
2.289607 76.524872 90.306427 0.000000 0.000000 0.000000 -0.975409 -5.495587 -4.952149 -43.517345 7.033200 14.040671 39.585092 4.133511 1.560475 -6.836047 -5.172578 -8.270393 0.000000 0.000000 0.000000 -0.975409 -5.495587 -4.952149 -19.650077 1.307789 9.341247 44.474295 4.606946 -2.112814 -23.709289 -1.408745 -1.555104 0.000000 0.000000 0.000000 -0.975409 -5.495587 -4.952149 0.000000 0.000000 0.000000 15.292952 3.210948 2.605364 18.024883 6.503978 3.282287 0.000000 0.000000 0.000000 17.858219 6.643051 3.605584 -47.818998 22.436222 -26.060899 0.000000 0.000000 0.000000 17.858219 6.643051 3.605584 -2.260332 -12.898584 -9.269981 -19.824143 8.930771 -68.908433 0.000003 -46.474028 0.000011 0.000000 0.000000 0.000000 17.858219 6.643051 3.605584 -0.326875 13.761757 9.217768 -58.192440 10.658754 32.619816 -179.999991 79.384980 -179.999991 0.000000 0.000000 0.000000 
2.182287 76.559090 89.757812 0.000000 0.000000 0.000000 -1.821811 -4.983294 -5.068590 -42.304525 6.477180 14.691441 41.032819 5.402269 1.139932 -5.722473 -4.909519 -10.803673 0.000000 0.000000 0.000000 -1.821811 -4.983294 -5.068590 -19.054483 1.037259 9.649743 44.346769 4.571014 -2.283760 -23.521672 -1.720653 -2.026001 0.000000 0.000000 0.000000 -1.821811 -4.983294 -5.068590 0.000000 0.000000 0.000000 15.181622 3.123390 2.801173 17.724865 6.151641 3.244094 0.000000 0.000000 0.000000 17.563871 6.278933 3.554083 -48.125649 20.993039 -25.171757 0.000000 0.000000 0.000000 17.563871 6.278933 3.554083 -2.043082 -12.649534 -9.012656 -20.905669 9.779918 -69.261793 0.000002 -44.059259 0.000017 0.000000 0.000000 0.000000 17.563871 6.278933 3.554083 -0.267042 12.535942 9.806650 -61.139065 11.110019 32.393883 -179.999486 79.252099 179.999541 0.000000 0.000000 0.000000 
2.099109 76.572937 89.238281 0.000000 0.000000 0.000000 -2.609562 -4.428150 -5.176956 -40.975111 6.492747 15.399145 42.705724 5.113438 1.006448 -5.263912 -4.734080 -13.041770 0.000000 0.000000 0.000000 -2.609562 -4.428150 -5.176956 -18.522377 0.757717 9.934165 44.289706 4.539225 -2.435119 -23.449918 -2.067431 -2.494019 0.000000 0.000000 0.000000 -2.609562 -4.428150 -5.176956 0.000000 0.000000 0.000000 15.070539 3.007888 3.012277 17.406980 5.782073 3.195771 0.000000 0.000000 0.000000 17.248043 5.901322 3.501946 -48.486717 19.437291 -24.309316 0.000000 0.000000 0.000000 17.248043 5.901322 3.501946 -1.790817 -12.429358 -8.768183 -21.819707 10.680660 -69.551318 -0.000000 -42.090330 -0.000020 0.000000 0.000000 0.000000 17.248043 5.901322 3.501946 -0.181134 11.242564 10.300509 -64.383665 10.952385 32.276114 -179.999595 78.663774 179.999609 0.000000 0.000000 0.000000 
2.042547 76.556061 88.750595 0.000000 0.000000 0.000000 -3.319594 -3.870382 -5.311020 -40.310602 5.936856 15.810437 46.374877 4.629703 0.891701 -5.200057 -4.697249 -13.745186 0.000000 0.000000 0.000000 -3.319594 -3.870382 -5.311020 -18.075057 0.387942 10.185860 44.327545 4.573813 -2.585705 -23.432497 -2.383267 -2.908349 0.000000 0.000000 0.000000 -3.319594 -3.870382 -5.311020 0.000000 0.000000 0.000000 14.934325 2.897734 3.244063 17.074477 5.400403 3.165253 0.000000 0.000000 0.000000 16.922716 5.503442 3.459010 -48.745141 17.997566 -23.542364 0.000000 0.000000 0.000000 16.922716 5.503442 3.459010 -1.565839 -12.217986 -8.558231 -22.475911 11.559230 -69.794554 0.000004 -40.635705 0.000014 0.000000 0.000000 0.000000 16.922716 5.503442 3.459010 -0.083299 9.912754 10.665543 -68.418469 10.326508 32.300835 -179.999855 77.687425 179.999855 0.000000 0.000000 0.000000 
2.005769 76.532837 88.277390 0.000000 0.000000 0.000000 -3.934536 -3.343201 -5.447828 -39.813552 5.448269 16.080238 50.273269 4.056697 0.783871 -5.329143 -4.804077 -13.326700 0.000000 0.000000 0.000000 -3.934536 -3.343201 -5.447828 -17.750350 0.056011 10.386488 44.370306 4.515998 -2.655412 -23.381833 -2.583446 -3.246546 0.000000 0.000000 0.000000 -3.934536 -3.343201 -5.447828 0.000000 0.000000 0.000000 14.771517 2.767070 3.461985 16.719437 5.016348 3.144825 0.000000 0.000000 0.000000 16.574998 5.103049 3.424438 -48.942656 16.747301 -22.861234 0.000000 0.000000 0.000000 16.574998 5.103049 3.424438 -1.369164 -12.010693 -8.388561 -22.834716 12.343965 -69.998606 -0.000001 -39.722881 0.000012 0.000000 0.000000 0.000000 16.574998 5.103049 3.424438 0.027530 8.591838 10.898900 -71.735947 9.765252 32.121898 -179.999814 75.723193 179.999827 0.000000 0.000000 0.000000 
1.987489 76.496925 87.818512 0.000000 0.000000 0.000000 -4.441453 -2.876625 -5.594602 -39.357667 4.971693 16.363289 54.272553 3.797036 0.631827 -5.252150 -5.039144 -12.437847 0.000000 0.000000 0.000000 -4.441453 -2.876625 -5.594602 -17.575752 -0.157893 10.546715 44.457063 4.328903 -2.598442 -23.369786 -2.687929 -3.501893 0.000000 0.000000 0.000000 -4.441453 -2.876625 -5.594602 0.000000 0.000000 0.000000 14.584289 2.604676 3.666840 16.332172 4.635415 3.120936 0.000000 0.000000 0.000000 16.191394 4.712221 3.392032 -49.069319 15.666413 -22.234684 0.000000 0.000000 0.000000 16.191394 4.712221 3.392032 -1.190350 -11.807696 -8.251995 -22.888476 12.980308 -70.167510 -0.000003 -39.331709 -0.000005 0.000000 0.000000 0.000000 16.191394 4.712221 3.392032 0.136383 7.326279 11.014302 -75.221754 9.077754 31.832824 -179.999950 73.663822 179.999937 0.000000 0.000000 0.000000 
